<?xml version="1.0" standalone="no"?>
<!DOCTYPE svg PUBLIC "-//W3C//DTD SVG 20010904//EN"
 "http://www.w3.org/TR/2001/REC-SVG-20010904/DTD/svg10.dtd">
<svg version="1.0" xmlns="http://www.w3.org/2000/svg"
 width="512" height="481" viewBox="0 0 512 481"
 preserveAspectRatio="xMidYMid meet">

<g transform="translate(0,512) scale(0.100000,-0.100000)"
fill="none" stroke="none">
<path d="M2517 3971 c-130 -123 -308 -439 -373 -662 -42 -147 -94 -389 -94
-441 0 -21 -3 -38 -7 -38 -3 0 -20 10 -37 23 -17 13 -60 34 -96 47 -127 46
-111 9 -302 705 -23 83 -45 154 -50 159 -49 57 194 -793 351 -1228 16 -44 59
-173 96 -286 57 -174 65 -208 55 -224 -55 -88 -79 -168 -81 -271 l0 -40 -13
45 c-7 25 -24 83 -39 130 -14 47 -44 148 -66 225 -68 234 -136 446 -166 515
-15 36 -54 142 -87 235 -33 94 -72 204 -86 245 -26 74 -26 79 -27 355 0 248 2
284 18 314 19 38 13 57 -8 27 -26 -35 -36 -126 -38 -329 -1 -228 5 -271 64
-450 22 -66 38 -121 36 -123 -1 -2 -23 10 -47 26 -91 60 -177 78 -475 99 -140
10 -206 26 -300 73 -95 47 -144 81 -155 108 -19 47 -3 -90 23 -200 14 -58 32
-143 41 -190 50 -252 235 -957 346 -1320 21 -69 47 -160 56 -203 13 -57 23
-81 38 -89 12 -6 44 -28 71 -49 128 -95 176 -104 615 -119 165 -6 297 -15 330
-23 73 -18 199 -82 285 -145 39 -28 98 -72 133 -97 35 -26 62 -49 59 -51 -2
-2 -39 5 -82 16 -70 18 -111 20 -389 20 -313 0 -437 -9 -619 -45 -43 -8 -101
-15 -128 -15 -27 0 -91 -9 -142 -20 -86 -19 -181 -31 -354 -46 -52 -5 -77 -3
-88 6 -13 10 -15 9 -15 -9 0 -32 33 -35 194 -17 81 9 152 16 159 15 6 0 -55
-24 -138 -53 -82 -30 -185 -68 -228 -86 -45 -19 -81 -29 -86 -24 -8 9 -59 268
-85 429 -14 86 -55 254 -96 395 -11 36 -35 137 -55 225 -19 88 -49 205 -66
260 -54 179 -128 487 -154 639 -14 82 -31 173 -39 202 -13 49 -12 54 5 70 10
9 24 14 32 11 15 -6 100 -270 121 -377 64 -333 121 -559 196 -780 39 -113 72
-230 105 -370 15 -63 44 -187 65 -275 21 -88 41 -175 45 -192 4 -19 13 -33 21
-33 10 0 13 7 9 23 -15 65 -99 416 -121 502 -14 55 -40 150 -59 210 -110 359
-135 446 -159 560 -73 353 -105 480 -167 665 -57 168 -69 195 -64 150 l5 -55
-40 -18 c-46 -20 -64 -54 -86 -165 -7 -40 -18 -81 -23 -91 -12 -22 -4 -77 42
-291 20 -91 41 -190 48 -220 6 -30 24 -109 39 -175 16 -66 35 -154 44 -195 9
-41 22 -104 31 -140 8 -36 23 -105 35 -155 11 -49 31 -139 45 -200 54 -234 64
-282 76 -340 6 -33 17 -78 24 -100 7 -22 18 -78 25 -125 6 -47 18 -110 25
-140 7 -30 18 -94 25 -143 13 -84 22 -103 33 -72 4 8 23 22 44 33 21 10 79 41
128 70 104 59 224 107 386 152 63 18 143 41 179 52 92 26 245 64 315 77 405
75 453 81 679 80 111 0 219 -3 241 -7 35 -6 46 -3 88 25 39 26 59 33 98 33 39
0 69 10 140 46 77 38 228 97 384 149 50 16 216 52 304 65 331 50 353 52 721
57 336 5 376 3 502 -16 177 -27 224 -28 231 -1 3 11 -4 36 -14 57 -10 20 -19
45 -19 54 0 9 -14 54 -31 100 -16 46 -39 110 -49 141 -10 31 -26 70 -34 86 -9
17 -23 52 -32 79 -9 26 -39 98 -66 158 -28 61 -63 146 -80 190 -16 44 -35 89
-42 100 -8 12 -32 75 -54 140 -82 248 -150 413 -242 595 -37 74 -77 158 -88
185 -88 224 -170 407 -191 428 -5 5 -34 2 -64 -7 -69 -20 -64 -21 -72 13 -13
59 -32 58 -185 -4 -102 -42 -95 -44 -115 32 -20 78 -70 224 -86 254 -25 47
-18 4 15 -98 19 -59 63 -207 97 -328 62 -223 92 -311 194 -580 51 -131 75
-205 164 -490 11 -33 31 -90 45 -127 l25 -67 -72 -21 c-40 -12 -101 -32 -137
-45 -36 -13 -76 -27 -90 -30 -52 -15 -246 -119 -340 -183 -168 -114 -531 -467
-645 -627 -35 -49 -78 -116 -96 -148 -17 -32 -33 -56 -36 -53 -14 14 92 569
138 721 42 141 222 450 322 553 23 23 36 42 31 42 -19 0 -107 -101 -176 -200
-107 -154 -192 -325 -216 -436 -71 -322 -92 -428 -102 -511 -15 -127 -19 -145
-29 -139 -14 9 -89 197 -126 317 -33 104 -102 371 -140 539 -9 41 -32 127 -50
190 -35 118 -86 325 -155 625 -21 94 -50 204 -63 246 -22 67 -24 84 -16 155
17 161 100 476 161 608 84 183 198 365 286 458 l45 47 69 -202 c38 -111 82
-255 99 -320 49 -194 121 -427 282 -907 84 -250 153 -445 155 -434 4 27 -52
210 -174 569 -52 154 -113 341 -136 415 l-40 135 78 73 c137 127 232 177 492
260 45 15 82 30 82 34 0 14 -33 8 -115 -21 -280 -98 -357 -141 -471 -264 -35
-39 -67 -68 -69 -65 -3 2 -25 78 -50 169 -25 90 -53 184 -62 209 -60 167 -113
328 -113 347 0 39 -19 35 -73 -16z m1367 -673 c5 -21 25 -75 88 -238 33 -85
83 -222 112 -305 168 -474 266 -735 311 -825 18 -36 54 -123 79 -195 84 -232
109 -300 117 -310 9 -13 31 -91 35 -128 l4 -28 -48 8 c-132 22 -525 -11 -837
-71 -99 -19 -303 -78 -410 -118 -224 -84 -514 -244 -627 -347 -15 -13 -31 -22
-34 -18 -24 23 123 239 277 406 65 72 125 134 133 138 7 4 69 62 137 127 209
200 399 312 697 411 l173 58 -7 31 c-3 17 -15 56 -26 86 -11 30 -42 127 -69
215 -28 88 -97 286 -154 440 -107 290 -189 551 -183 582 2 13 34 29 103 55
111 41 124 44 129 26z m163 -50 c14 -19 67 -140 138 -320 35 -86 93 -214 129
-285 79 -156 159 -355 241 -598 22 -66 86 -222 170 -415 57 -130 151 -375 182
-473 5 -16 0 -17 -63 -12 -38 4 -76 9 -84 11 -50 16 -253 22 -535 14 -299 -8
-333 -11 -520 -44 -110 -19 -238 -44 -284 -55 -47 -11 -87 -19 -89 -17 -10 10
333 109 453 130 277 50 380 60 629 64 l248 3 -7 22 c-3 12 -8 33 -9 47 -5 39
-18 82 -33 113 -8 16 -43 113 -79 215 -35 102 -86 233 -113 292 -49 104 -110
262 -194 500 -68 191 -140 386 -219 592 -39 103 -68 193 -65 202 3 8 21 16 39
19 18 2 38 5 44 5 6 1 16 -4 21 -10z m-3347 -148 c86 -56 187 -83 375 -100
284 -25 357 -43 447 -110 23 -16 47 -30 53 -30 6 0 20 -28 30 -62 10 -35 40
-116 67 -181 26 -65 55 -144 64 -175 9 -31 35 -118 59 -192 23 -74 48 -160 55
-190 7 -30 27 -100 45 -156 19 -55 41 -129 50 -164 34 -133 162 -361 218 -391
34 -19 126 -109 168 -166 47 -62 179 -290 208 -357 5 -13 -62 29 -131 82 -78
59 -201 118 -295 143 -64 16 -130 22 -358 29 -311 10 -428 18 -465 32 -13 5
-62 34 -107 64 -71 49 -84 61 -97 101 -9 25 -14 49 -11 53 3 4 -8 48 -24 96
-16 49 -43 141 -60 204 -18 63 -50 177 -72 252 -49 168 -102 364 -119 438 -7
30 -30 124 -51 208 -22 84 -48 199 -60 255 -18 91 -71 312 -86 361 -5 18 -2
17 33 -4 22 -13 50 -31 64 -40z m1290 -263 c19 -12 38 -21 42 -20 13 5 43
-110 138 -527 33 -146 71 -305 85 -355 31 -110 68 -252 140 -540 30 -121 75
-281 99 -355 25 -74 43 -136 42 -138 -2 -1 -30 44 -61 100 -88 156 -136 218
-240 314 -103 94 -184 208 -215 298 -14 42 -15 70 -9 166 7 123 31 200 71 231
l20 16 -23 79 c-13 43 -76 236 -141 429 -65 192 -118 355 -118 362 0 14 115
-26 170 -60z m-1814 -350 c9 -54 14 -100 11 -103 -3 -3 -11 28 -17 68 -7 40
-18 93 -26 116 -7 24 -10 51 -6 60 8 21 16 -11 38 -141z m9 -266 c18 -104 35
-127 36 -50 l1 54 14 -60 c8 -33 26 -109 40 -170 14 -60 31 -126 38 -145 21
-53 72 -251 100 -385 14 -66 36 -158 49 -205 48 -166 76 -276 81 -315 7 -60
41 -244 71 -383 l26 -123 -22 -35 c-12 -20 -25 -32 -29 -27 -7 8 -32 109 -45
183 -19 108 -38 180 -47 180 -7 0 -8 -15 -5 -37 17 -110 48 -275 62 -328 14
-57 12 -130 -5 -120 -4 3 -11 34 -15 70 -3 36 -11 67 -16 71 -5 3 -7 9 -5 13
9 14 -21 163 -115 564 -17 72 -39 173 -49 223 -10 50 -24 111 -31 135 -7 24
-13 49 -15 56 -6 31 -37 170 -65 288 -16 72 -41 180 -53 240 -13 61 -33 152
-45 204 -11 52 -19 96 -18 98 2 1 17 -45 33 -104 16 -58 35 -108 42 -111 19
-6 15 27 -17 145 -16 59 -37 144 -46 188 -9 44 -20 92 -25 106 -7 25 -5 67 7
99 5 14 35 -127 68 -319z m-91 173 c2 -11 6 -39 10 -64 l6 -45 -15 50 c-15 50
-20 93 -10 83 3 -3 7 -14 9 -24z m103 -56 c-3 -8 -6 -5 -6 6 -1 11 2 17 5 13
3 -3 4 -12 1 -19z m-80 -90 c-3 -7 -5 -2 -5 12 0 14 2 19 5 13 2 -7 2 -19 0
-25z m4503 -1108 c251 -27 303 -35 308 -49 4 -11 -2 -13 -29 -7 -65 14 -154
26 -196 26 -74 0 -47 -17 45 -29 48 -6 112 -20 142 -31 l55 -20 -50 6 c-27 3
-88 12 -135 20 -126 21 -230 18 -214 -7 3 -5 33 -9 67 -9 34 -1 89 -7 122 -15
l60 -14 -55 7 c-30 4 -210 7 -400 7 -265 0 -379 -4 -490 -18 -189 -23 -432
-64 -545 -92 -99 -25 -364 -119 -435 -154 -42 -20 -43 -21 -20 -2 14 11 89 53
168 93 137 69 163 88 123 88 -22 0 -179 -77 -271 -133 -36 -21 -56 -30 -45
-18 29 29 191 125 265 156 133 56 344 108 635 156 168 28 223 32 475 39 157 3
294 7 305 8 11 1 63 -3 115 -8z m319 -151 c12 -7 5 -8 -24 -3 -22 3 -53 8 -70
11 -16 3 -32 7 -35 10 -9 10 112 -7 129 -18z m-2509 -274 c19 -3 60 -13 90
-22 30 -9 61 -17 68 -19 7 -2 11 -8 7 -13 -3 -6 -24 -4 -53 5 -77 24 -228 44
-333 44 -91 0 -160 -13 -146 -26 3 -4 64 -6 134 -6 70 0 139 -4 153 -8 15 -5
-19 -8 -91 -9 -122 -1 -259 -17 -451 -51 -186 -33 -398 -79 -463 -99 -33 -11
-109 -33 -170 -51 -60 -17 -148 -43 -194 -57 -88 -26 -213 -84 -315 -147 -64
-38 -89 -45 -80 -21 3 8 22 19 42 26 21 6 71 31 113 55 42 24 79 44 83 44 5 0
22 6 39 14 88 40 189 80 247 98 178 55 234 76 238 88 16 47 -453 -119 -639
-226 -42 -24 -81 -44 -87 -44 -7 0 -12 11 -12 25 0 15 6 25 14 25 7 0 45 16
82 35 68 35 205 98 253 116 18 7 21 13 13 21 -13 13 -79 -11 -214 -79 -89 -44
-115 -52 -102 -32 11 19 192 99 329 145 267 91 504 144 765 172 85 9 626 6
680 -3z m310 1 c0 -3 -4 -8 -10 -11 -5 -3 -10 -1 -10 4 0 6 5 11 10 11 6 0 10
-2 10 -4z" fill="#57BBDD"/>
<path d="M399 1343 c-2 -22 -5 -5 42 -198 22 -88 45 -182 52 -210 7 -27 17
-48 22 -47 12 2 12 10 1 77 -15 94 -100 395 -111 395 -3 0 -6 -8 -6 -17z" fill="#57BBDD"/>
<path d="M472 3791 c-5 -3 -26 -38 -45 -77 l-36 -71 -81 -13 c-115 -18 -120
-31 -40 -114 l61 -64 -12 -82 c-12 -77 -12 -83 6 -96 16 -12 27 -9 93 26 l74
40 65 -35 c108 -59 126 -46 106 73 l-13 76 60 61 c33 33 60 65 60 72 0 21 -27
33 -104 44 l-77 12 -37 73 c-33 68 -57 90 -80 75z m64 -83 c20 -40 42 -76 48
-80 6 -4 36 -10 66 -14 30 -4 66 -11 79 -16 23 -8 22 -10 -38 -73 -68 -70 -64
-54 -42 -178 12 -64 1 -67 -88 -22 l-72 36 -67 -36 c-36 -19 -72 -35 -79 -35
-16 0 -16 25 -1 107 l12 64 -63 63 c-40 40 -59 66 -52 71 6 3 46 12 89 18 l77
12 38 78 c20 42 42 77 47 77 5 0 26 -33 46 -72z" fill="#57BBDD"/>
<path d="M440 3545 c0 -8 5 -15 10 -15 6 0 10 7 10 15 0 8 -4 15 -10 15 -5 0
-10 -7 -10 -15z" fill="#57BBDD"/>
<path d="M550 3535 c0 -8 5 -15 10 -15 6 0 10 7 10 15 0 8 -4 15 -10 15 -5 0
-10 -7 -10 -15z" fill="#57BBDD"/>
<path d="M470 3491 c0 -12 29 -41 40 -41 11 0 40 29 40 41 0 14 -12 11 -26 -8
-13 -17 -15 -17 -28 0 -14 19 -26 22 -26 8z" fill="#57BBDD"/>
<path d="M4082 3493 c2 -9 11 -17 20 -19 15 -2 16 1 8 17 -13 23 -33 25 -28 2z" fill="#57BBDD"/>
<path d="M4925 3428 c-27 -18 -19 -18 24 0 10 4 12 1 6 -8 -5 -9 -4 -11 3 -6
13 8 16 36 5 35 -5 0 -21 -10 -38 -21z" fill="#57BBDD"/>
<path d="M4714 3328 l-19 -23 23 19 c12 11 22 21 22 23 0 8 -8 2 -26 -19z" fill="#57BBDD"/>
<path d="M4210 3306 c0 -2 8 -10 18 -17 15 -13 16 -12 3 4 -13 16 -21 21 -21
13z" fill="#57BBDD"/>
<path d="M4670 3290 c0 -5 9 -14 20 -20 20 -11 26 -4 12 15 -10 14 -32 17 -32
5z" fill="#57BBDD"/>
<path d="M4655 3260 c3 -5 10 -10 16 -10 5 0 9 5 9 10 0 6 -7 10 -16 10 -8 0
-12 -4 -9 -10z" fill="#57BBDD"/>
<path d="M4307 3163 c3 -7 6 -13 8 -13 2 0 5 6 8 13 3 8 -1 14 -8 14 -7 0 -11
-6 -8 -14z" fill="#57BBDD"/>
<path d="M510 2825 c-47 -7 -108 -18 -137 -25 -46 -10 -55 -9 -93 10 -44 23
-69 18 -35 -6 40 -30 91 -36 172 -20 43 8 111 18 151 22 46 4 71 11 69 18 -5
16 -30 16 -127 1z" fill="#57BBDD"/>
</g>
</svg>
